<?xml version="1.0" encoding="UTF-8" standalone="no"?>
<!-- Created with Inkscape (http://www.inkscape.org/) -->

<svg
   xmlns:dc="http://purl.org/dc/elements/1.1/"
   xmlns:cc="http://creativecommons.org/ns#"
   xmlns:rdf="http://www.w3.org/1999/02/22-rdf-syntax-ns#"
   xmlns:svg="http://www.w3.org/2000/svg"
   xmlns="http://www.w3.org/2000/svg"
   xmlns:sodipodi="http://sodipodi.sourceforge.net/DTD/sodipodi-0.dtd"
   xmlns:inkscape="http://www.inkscape.org/namespaces/inkscape"
   width="128"
   height="128"
   viewBox="0 0 33.866666 33.866668"
   version="1.1"
   id="svg834"
   inkscape:version="0.92.4 (unknown)"
   sodipodi:docname="morale.svg">
  <defs
     id="defs828" />
  <sodipodi:namedview
     id="base"
     pagecolor="#ffffff"
     bordercolor="#666666"
     borderopacity="1.0"
     inkscape:pageopacity="0.0"
     inkscape:pageshadow="2"
     inkscape:zoom="1.979899"
     inkscape:cx="76.662802"
     inkscape:cy="76.64702"
     inkscape:document-units="mm"
     inkscape:current-layer="layer1"
     showgrid="false"
     inkscape:window-width="1366"
     inkscape:window-height="711"
     inkscape:window-x="1366"
     inkscape:window-y="0"
     inkscape:window-maximized="1"
     units="px"
     inkscape:snap-global="false"
     showguides="true"
     inkscape:guide-bbox="true"
     inkscape:showpageshadow="true"
     borderlayer="true"
     inkscape:pagecheckerboard="true">
    <sodipodi:guide
       position="5.2916666,23.103796"
       orientation="1,0"
       id="guide1421"
       inkscape:locked="false" />
    <sodipodi:guide
       position="17.62314,18.946057"
       orientation="1,0"
       id="guide1423"
       inkscape:locked="false" />
    <sodipodi:guide
       position="8.1517204,28.36398"
       orientation="0,1"
       id="guide1466"
       inkscape:locked="false" />
  </sodipodi:namedview>
  <metadata
     id="metadata831">
    <rdf:RDF>
      <cc:Work
         rdf:about="">
        <dc:format>image/svg+xml</dc:format>
        <dc:type
           rdf:resource="http://purl.org/dc/dcmitype/StillImage" />
        <dc:title></dc:title>
      </cc:Work>
    </rdf:RDF>
  </metadata>
  <g
     inkscape:label="Livello 1"
     inkscape:groupmode="layer"
     id="layer1"
     transform="translate(0,-263.13332)">
    <path
       style="opacity:1;fill:#000000;fill-opacity:1;fill-rule:nonzero;stroke:none;stroke-width:1.04034257;stroke-linecap:square;stroke-linejoin:miter;stroke-miterlimit:4;stroke-dasharray:none;stroke-dashoffset:0;stroke-opacity:0.98884762;paint-order:fill markers stroke"
       d="m 13.928372,267.76691 c -3.661017,0 -7.8018251,1.10105 -7.8018251,1.10105 v 17.65625 c 0,0 4.2566621,-1.10103 7.8018251,-1.10103 3.54516,0 0.598583,1.65154 3.773008,1.65154 3.174425,0 7.067886,-1.10105 9.431326,-1.10105 2.363442,0 3.776324,1.10105 3.776324,1.10105 v -17.65626 c 0,0 -0.972311,-1.10102 -3.219895,-1.10102 -2.247587,0 -6.025513,1.10102 -9.292622,1.10102 -3.26711,0 -0.807127,-1.65155 -4.468141,-1.65155 z m 3.647745,3.51493 6.208881,4.70463 -3.054174,1.06661 v 5.58418 c 0,0 -1.854556,0.7357 -3.035358,0.55052 -1.184406,-0.18574 -2.873535,-1.10103 -2.873535,-1.10103 v -5.58526 l -3.705221,-0.51502 z"
       id="rect1449"
       inkscape:connector-curvature="0"
       sodipodi:nodetypes="sccsssccsssccccccccc" />
    <path
       style="opacity:1;fill:#000000;fill-opacity:1;fill-rule:nonzero;stroke:none;stroke-width:0.98174351;stroke-linecap:square;stroke-linejoin:miter;stroke-miterlimit:4;stroke-dasharray:none;stroke-dashoffset:0;stroke-opacity:0.98884762;paint-order:fill markers stroke"
       d="m 2.7224532,268.63601 h 2.5692133 v 24.55993 H 2.7224532 Z"
       id="rect1460"
       inkscape:connector-curvature="0" />
    <path
       style="opacity:1;fill:#000000;fill-opacity:1;fill-rule:nonzero;stroke:none;stroke-width:0.79199809;stroke-linecap:square;stroke-linejoin:miter;stroke-miterlimit:4;stroke-dasharray:none;stroke-dashoffset:0;stroke-opacity:0.98884762;paint-order:fill markers stroke"
       d="m 5.2916665,266.6424 a 1.3824994,1.3824994 0 0 1 -1.3824994,1.38251 1.3824994,1.3824994 0 0 1 -1.3824995,-1.38251 1.3824994,1.3824994 0 0 1 1.3824995,-1.38249 1.3824994,1.3824994 0 0 1 1.3824994,1.38249 z"
       id="path1463"
       inkscape:connector-curvature="0" />
  </g>
</svg>
