<?xml version="1.0" encoding="UTF-8" standalone="no"?>
<svg
   xmlns:dc="http://purl.org/dc/elements/1.1/"
   xmlns:cc="http://creativecommons.org/ns#"
   xmlns:rdf="http://www.w3.org/1999/02/22-rdf-syntax-ns#"
   xmlns:svg="http://www.w3.org/2000/svg"
   xmlns="http://www.w3.org/2000/svg"
   xmlns:sodipodi="http://sodipodi.sourceforge.net/DTD/sodipodi-0.dtd"
   xmlns:inkscape="http://www.inkscape.org/namespaces/inkscape"
   id="svg8"
   version="1.1"
   viewBox="0 0 33.866666 33.866668"
   height="128"
   width="128"
   sodipodi:docname="terrain.svg"
   inkscape:version="0.92.4 (unknown)">
  <sodipodi:namedview
     pagecolor="#ffffff"
     bordercolor="#666666"
     borderopacity="1"
     objecttolerance="10"
     gridtolerance="10"
     guidetolerance="10"
     inkscape:pageopacity="0"
     inkscape:pageshadow="2"
     inkscape:window-width="1366"
     inkscape:window-height="711"
     id="namedview7"
     showgrid="false"
     inkscape:zoom="2.6074563"
     inkscape:cx="100.72134"
     inkscape:cy="76.920391"
     inkscape:window-x="1366"
     inkscape:window-y="0"
     inkscape:window-maximized="1"
     inkscape:current-layer="svg8" />
  <defs
     id="defs2" />
  <metadata
     id="metadata5">
    <rdf:RDF>
      <cc:Work
         rdf:about="">
        <dc:format>image/svg+xml</dc:format>
        <dc:type
           rdf:resource="http://purl.org/dc/dcmitype/StillImage" />
        <dc:title />
      </cc:Work>
    </rdf:RDF>
  </metadata>
  <g
     transform="translate(0,-263.13332)"
     id="layer1">
    <path
       id="rect852"
       d="m 24.38094,290.9682 h -1.350305 v -3.27577 c 0.621837,0.26827 0.240502,0.40808 0.926042,0.40979 2.620254,2e-4 4.744482,-1.97433 4.744415,-4.41006 -0.0024,-1.39063 -0.710265,-2.69874 -1.909963,-3.5295 0.261597,-0.5557 0.397057,-1.15559 0.397909,-1.76217 -0.0026,-1.87088 -1.274769,-3.53664 -3.173966,-4.15582 0.10304,-0.32258 -0.902563,-1.18641 -0.901754,-1.52291 -0.0013,-1.25646 -1.346785,-1.72487 -2.517602,-2.35268 -0.06694,-1.89666 -3.684604,-5.17273 -3.684604,-5.17273 0,0 -3.781461,3.29524 -3.873592,5.17273 -1.119958,0.63953 -2.237537,1.03629 -2.238697,2.25812 0.0016,0.37037 -0.9921731,1.26735 -0.8671301,1.61902 -1.4274799,0.79595 -2.3017533,2.22915 -2.3037356,3.77652 -8.64e-5,0.69625 0.1771759,1.38263 0.517281,2.00297 -1.7989353,0.66999 -2.9786172,2.28976 -2.979663,4.09123 -6.72e-5,2.43573 2.1241602,4.41025 4.7444136,4.41006 0.6177941,-10e-4 1.2293791,-0.11464 1.8004061,-0.33383 l -1.058333,2.77503 H 9.2831529 v 3.96875 H 24.38094 Z"
       style="opacity:1;fill:#000000;fill-opacity:1;fill-rule:nonzero;stroke:#000000;stroke-width:1;stroke-linecap:square;stroke-linejoin:miter;stroke-miterlimit:4;stroke-dasharray:none;stroke-dashoffset:0;stroke-opacity:0.98884762;paint-order:fill markers stroke"
       inkscape:connector-curvature="0"
       sodipodi:nodetypes="cccccccccccccccccccccccc" />
  </g>
</svg>
