<?xml version="1.0" encoding="UTF-8" standalone="no"?>
<svg
   xmlns:dc="http://purl.org/dc/elements/1.1/"
   xmlns:cc="http://creativecommons.org/ns#"
   xmlns:rdf="http://www.w3.org/1999/02/22-rdf-syntax-ns#"
   xmlns:svg="http://www.w3.org/2000/svg"
   xmlns="http://www.w3.org/2000/svg"
   xmlns:sodipodi="http://sodipodi.sourceforge.net/DTD/sodipodi-0.dtd"
   xmlns:inkscape="http://www.inkscape.org/namespaces/inkscape"
   id="svg8"
   version="1.1"
   viewBox="0 0 33.866666 33.866668"
   height="128"
   width="128"
   sodipodi:docname="visibility.svg"
   inkscape:version="0.92.4 (unknown)">
  <sodipodi:namedview
     pagecolor="#ffffff"
     bordercolor="#666666"
     borderopacity="1"
     objecttolerance="10"
     gridtolerance="10"
     guidetolerance="10"
     inkscape:pageopacity="0"
     inkscape:pageshadow="2"
     inkscape:window-width="1366"
     inkscape:window-height="711"
     id="namedview9"
     showgrid="false"
     inkscape:zoom="1.84375"
     inkscape:cx="7.0508475"
     inkscape:cy="64"
     inkscape:window-x="1366"
     inkscape:window-y="0"
     inkscape:window-maximized="1"
     inkscape:current-layer="svg8" />
  <defs
     id="defs2" />
  <metadata
     id="metadata5">
    <rdf:RDF>
      <cc:Work
         rdf:about="">
        <dc:format>image/svg+xml</dc:format>
        <dc:type
           rdf:resource="http://purl.org/dc/dcmitype/StillImage" />
        <dc:title />
      </cc:Work>
    </rdf:RDF>
  </metadata>
  <path
     style="opacity:1;fill:#000000;fill-opacity:1;fill-rule:nonzero;stroke:none;stroke-width:3.77952743;stroke-linecap:square;stroke-linejoin:miter;stroke-miterlimit:4;stroke-dasharray:none;stroke-dashoffset:0;stroke-opacity:0.98884762;paint-order:fill markers stroke"
     d="M 64 15.511719 A 61.49303 48.48732 0 0 0 2.5078125 64 A 61.49303 48.48732 0 0 0 64 112.48828 A 61.49303 48.48732 0 0 0 125.49219 64 A 61.49303 48.48732 0 0 0 64 15.511719 z M 64 29.427734 A 38.214289 36.07143 0 0 1 102.21484 65.5 A 38.214289 36.07143 0 0 1 64 101.57227 A 38.214289 36.07143 0 0 1 25.785156 65.5 A 38.214289 36.07143 0 0 1 64 29.427734 z M 64 44.052734 A 26.456693 26.456693 0 0 0 37.542969 70.507812 A 26.456693 26.456693 0 0 0 64 96.964844 A 26.456693 26.456693 0 0 0 90.457031 70.507812 A 26.456693 26.456693 0 0 0 64 44.052734 z "
     transform="scale(0.26458334)"
     id="path838" />
</svg>
