<?xml version="1.0" encoding="UTF-8" standalone="no"?>
<svg
   xmlns:dc="http://purl.org/dc/elements/1.1/"
   xmlns:cc="http://creativecommons.org/ns#"
   xmlns:rdf="http://www.w3.org/1999/02/22-rdf-syntax-ns#"
   xmlns:svg="http://www.w3.org/2000/svg"
   xmlns="http://www.w3.org/2000/svg"
   xmlns:sodipodi="http://sodipodi.sourceforge.net/DTD/sodipodi-0.dtd"
   xmlns:inkscape="http://www.inkscape.org/namespaces/inkscape"
   style="height: 512px; width: 512px;"
   viewBox="0 0 512 512"
   version="1.1"
   id="svg1608"
   sodipodi:docname="hill-conquest.svg"
   inkscape:version="0.92.5 (0.92.5+68)">
  <metadata
     id="metadata1614">
    <rdf:RDF>
      <cc:Work
         rdf:about="">
        <dc:format>image/svg+xml</dc:format>
        <dc:type
           rdf:resource="http://purl.org/dc/dcmitype/StillImage" />
      </cc:Work>
    </rdf:RDF>
  </metadata>
  <defs
     id="defs1612" />
  <sodipodi:namedview
     pagecolor="#ffffff"
     bordercolor="#666666"
     borderopacity="1"
     objecttolerance="10"
     gridtolerance="10"
     guidetolerance="10"
     inkscape:pageopacity="0"
     inkscape:pageshadow="2"
     inkscape:window-width="1366"
     inkscape:window-height="711"
     id="namedview1610"
     showgrid="false"
     inkscape:zoom="0.4609375"
     inkscape:cx="28.20339"
     inkscape:cy="256"
     inkscape:window-x="1366"
     inkscape:window-y="0"
     inkscape:window-maximized="1"
     inkscape:current-layer="svg1608" />
  <g
     class=""
     style="touch-action:none;fill:#000000"
     transform="translate(0,0)"
     id="g1606">
    <path
       d="M247 55v203.248c-3.565-.103-7.126-.164-10.68-.154-62.774.18-123.48 18.017-170.16 55.783-18.406 14.89-34.696 32.91-48.16 54.28V494h208.92c43.583-100.15 136.274-151 230.414-151 2.962 0 5.926.056 8.89.156-1.515-1.36-3.045-2.705-4.59-4.035-53.44-45.953-125.055-74.07-196.634-79.884v-99.66c27.09-2.53 46.44-15.576 71-15.576 27.195 0 48 16 80 16V80c-32 0-48-16-80-16-28.854 0-44.703 13.005-71 15.563V55zm210.334 306c-85.44 0-168.606 43.956-210.47 133H494V363.73c-12.176-1.816-24.436-2.73-36.666-2.73z"
       fill="#fff"
       fill-opacity="1"
       id="path1604"
       style="fill:#000000" />
  </g>
</svg>
